<mxfile host="Electron" modified="2024-06-16T13:50:50.618Z" agent="Mozilla/5.0 (Windows NT 10.0; Win64; x64) AppleWebKit/537.36 (KHTML, like Gecko) draw.io/24.5.3 Chrome/124.0.6367.207 Electron/30.0.6 Safari/537.36" etag="jOuE1UMSo4YSDKNT3_rl" version="24.5.3" type="device" pages="4">
  <diagram name="ha-dr" id="tbbQTGLUhnEOXw7WYVIc">
    <mxGraphModel dx="1292" dy="2134" grid="1" gridSize="10" guides="1" tooltips="1" connect="1" arrows="1" fold="1" page="1" pageScale="1" pageWidth="827" pageHeight="1169" math="0" shadow="0">
      <root>
        <mxCell id="0" />
        <mxCell id="1" parent="0" />
        <mxCell id="j1aBg7FLUdjyBQEvdYvV-84" value="Region 2" style="shape=mxgraph.ibm.box;prType=region;fontStyle=0;verticalAlign=top;align=left;spacingLeft=32;spacingTop=4;fillColor=none;rounded=0;whiteSpace=wrap;html=1;strokeColor=#919191;strokeWidth=2;dashed=0;container=1;spacing=-4;collapsible=0;expand=0;recursiveResize=0;" vertex="1" parent="1">
          <mxGeometry x="530" y="130" width="480" height="480" as="geometry" />
        </mxCell>
        <mxCell id="j1aBg7FLUdjyBQEvdYvV-63" value="&lt;div&gt;Zonal&lt;/div&gt;Load&lt;div&gt;Balancer&lt;/div&gt;" style="ellipse;whiteSpace=wrap;html=1;aspect=fixed;" vertex="1" parent="j1aBg7FLUdjyBQEvdYvV-84">
          <mxGeometry x="250" y="20" width="70" height="70" as="geometry" />
        </mxCell>
        <mxCell id="j1aBg7FLUdjyBQEvdYvV-85" value="Region 1" style="shape=mxgraph.ibm.box;prType=region;fontStyle=0;verticalAlign=top;align=left;spacingLeft=32;spacingTop=4;fillColor=none;rounded=0;whiteSpace=wrap;html=1;strokeColor=#919191;strokeWidth=2;dashed=0;container=1;spacing=-4;collapsible=0;expand=0;recursiveResize=0;" vertex="1" parent="1">
          <mxGeometry x="30" y="130" width="480" height="480" as="geometry" />
        </mxCell>
        <mxCell id="j1aBg7FLUdjyBQEvdYvV-37" value="&lt;div&gt;Zonal&lt;/div&gt;Load&lt;div&gt;Balancer&lt;/div&gt;" style="ellipse;whiteSpace=wrap;html=1;aspect=fixed;" vertex="1" parent="j1aBg7FLUdjyBQEvdYvV-85">
          <mxGeometry x="240" y="20" width="70" height="70" as="geometry" />
        </mxCell>
        <mxCell id="j1aBg7FLUdjyBQEvdYvV-11" style="edgeStyle=orthogonalEdgeStyle;rounded=0;orthogonalLoop=1;jettySize=auto;html=1;exitX=0;exitY=0.5;exitDx=0;exitDy=0;" edge="1" parent="1" source="j1aBg7FLUdjyBQEvdYvV-10" target="j1aBg7FLUdjyBQEvdYvV-37">
          <mxGeometry relative="1" as="geometry" />
        </mxCell>
        <mxCell id="j1aBg7FLUdjyBQEvdYvV-64" style="edgeStyle=orthogonalEdgeStyle;rounded=0;orthogonalLoop=1;jettySize=auto;html=1;" edge="1" parent="1" source="j1aBg7FLUdjyBQEvdYvV-10" target="j1aBg7FLUdjyBQEvdYvV-63">
          <mxGeometry relative="1" as="geometry" />
        </mxCell>
        <mxCell id="j1aBg7FLUdjyBQEvdYvV-10" value="&lt;div&gt;Cross-Region&lt;/div&gt;Load&lt;div&gt;Balancer&lt;/div&gt;" style="ellipse;whiteSpace=wrap;html=1;aspect=fixed;" vertex="1" parent="1">
          <mxGeometry x="490" y="20" width="70" height="70" as="geometry" />
        </mxCell>
        <mxCell id="j1aBg7FLUdjyBQEvdYvV-1" value="Zone A" style="shape=mxgraph.ibm.box;prType=zone;fontStyle=0;verticalAlign=top;align=left;spacingLeft=32;spacingTop=4;fillColor=#E0E0E0;rounded=0;whiteSpace=wrap;html=1;strokeColor=#919191;strokeWidth=1;dashed=0;container=1;spacing=-4;collapsible=0;expand=0;recursiveResize=0;" vertex="1" parent="1">
          <mxGeometry x="60" y="250" width="180" height="300" as="geometry" />
        </mxCell>
        <mxCell id="j1aBg7FLUdjyBQEvdYvV-5" value="Compute" style="whiteSpace=wrap;html=1;aspect=fixed;" vertex="1" parent="j1aBg7FLUdjyBQEvdYvV-1">
          <mxGeometry x="80" y="110" width="60" height="60" as="geometry" />
        </mxCell>
        <mxCell id="j1aBg7FLUdjyBQEvdYvV-6" value="Compute" style="whiteSpace=wrap;html=1;aspect=fixed;" vertex="1" parent="j1aBg7FLUdjyBQEvdYvV-1">
          <mxGeometry x="90" y="100" width="60" height="60" as="geometry" />
        </mxCell>
        <mxCell id="j1aBg7FLUdjyBQEvdYvV-7" value="Compute" style="whiteSpace=wrap;html=1;aspect=fixed;" vertex="1" parent="j1aBg7FLUdjyBQEvdYvV-1">
          <mxGeometry x="100" y="90" width="60" height="60" as="geometry" />
        </mxCell>
        <mxCell id="j1aBg7FLUdjyBQEvdYvV-8" value="" style="endArrow=classic;startArrow=classic;html=1;rounded=0;" edge="1" parent="j1aBg7FLUdjyBQEvdYvV-1">
          <mxGeometry width="50" height="50" relative="1" as="geometry">
            <mxPoint x="50" y="130" as="sourcePoint" />
            <mxPoint x="100" y="80" as="targetPoint" />
          </mxGeometry>
        </mxCell>
        <mxCell id="j1aBg7FLUdjyBQEvdYvV-9" value="Autoscale" style="text;html=1;align=center;verticalAlign=middle;resizable=0;points=[];autosize=1;strokeColor=none;fillColor=none;" vertex="1" parent="j1aBg7FLUdjyBQEvdYvV-1">
          <mxGeometry y="80" width="80" height="30" as="geometry" />
        </mxCell>
        <mxCell id="j1aBg7FLUdjyBQEvdYvV-12" value="Storage" style="shape=cylinder3;whiteSpace=wrap;html=1;boundedLbl=1;backgroundOutline=1;size=15;" vertex="1" parent="j1aBg7FLUdjyBQEvdYvV-1">
          <mxGeometry x="80" y="190" width="60" height="80" as="geometry" />
        </mxCell>
        <mxCell id="j1aBg7FLUdjyBQEvdYvV-77" style="edgeStyle=orthogonalEdgeStyle;rounded=0;orthogonalLoop=1;jettySize=auto;html=1;entryX=0.5;entryY=0;entryDx=0;entryDy=0;" edge="1" parent="j1aBg7FLUdjyBQEvdYvV-1" source="j1aBg7FLUdjyBQEvdYvV-76" target="j1aBg7FLUdjyBQEvdYvV-7">
          <mxGeometry relative="1" as="geometry" />
        </mxCell>
        <mxCell id="j1aBg7FLUdjyBQEvdYvV-76" value="&lt;div&gt;&lt;font style=&quot;font-size: 9px;&quot;&gt;&lt;span style=&quot;background-color: initial;&quot;&gt;Load&lt;/span&gt;&lt;br&gt;&lt;/font&gt;&lt;/div&gt;&lt;div&gt;&lt;font style=&quot;font-size: 9px;&quot;&gt;&lt;span style=&quot;background-color: initial;&quot;&gt;Balancer&lt;/span&gt;&lt;/font&gt;&lt;/div&gt;" style="ellipse;whiteSpace=wrap;html=1;aspect=fixed;" vertex="1" parent="j1aBg7FLUdjyBQEvdYvV-1">
          <mxGeometry x="107.5" y="10" width="45" height="45" as="geometry" />
        </mxCell>
        <mxCell id="j1aBg7FLUdjyBQEvdYvV-45" style="edgeStyle=orthogonalEdgeStyle;rounded=0;orthogonalLoop=1;jettySize=auto;html=1;" edge="1" parent="1" source="j1aBg7FLUdjyBQEvdYvV-37">
          <mxGeometry relative="1" as="geometry">
            <mxPoint x="190" y="260" as="targetPoint" />
          </mxGeometry>
        </mxCell>
        <mxCell id="j1aBg7FLUdjyBQEvdYvV-38" value="Zone B" style="shape=mxgraph.ibm.box;prType=zone;fontStyle=0;verticalAlign=top;align=left;spacingLeft=32;spacingTop=4;fillColor=#E0E0E0;rounded=0;whiteSpace=wrap;html=1;strokeColor=#919191;strokeWidth=1;dashed=0;container=1;spacing=-4;collapsible=0;expand=0;recursiveResize=0;" vertex="1" parent="1">
          <mxGeometry x="310" y="250" width="180" height="300" as="geometry" />
        </mxCell>
        <mxCell id="j1aBg7FLUdjyBQEvdYvV-39" value="Compute" style="whiteSpace=wrap;html=1;aspect=fixed;" vertex="1" parent="j1aBg7FLUdjyBQEvdYvV-38">
          <mxGeometry x="80" y="110" width="60" height="60" as="geometry" />
        </mxCell>
        <mxCell id="j1aBg7FLUdjyBQEvdYvV-40" value="Compute" style="whiteSpace=wrap;html=1;aspect=fixed;" vertex="1" parent="j1aBg7FLUdjyBQEvdYvV-38">
          <mxGeometry x="90" y="100" width="60" height="60" as="geometry" />
        </mxCell>
        <mxCell id="j1aBg7FLUdjyBQEvdYvV-41" value="Compute" style="whiteSpace=wrap;html=1;aspect=fixed;" vertex="1" parent="j1aBg7FLUdjyBQEvdYvV-38">
          <mxGeometry x="100" y="90" width="60" height="60" as="geometry" />
        </mxCell>
        <mxCell id="j1aBg7FLUdjyBQEvdYvV-42" value="" style="endArrow=classic;startArrow=classic;html=1;rounded=0;" edge="1" parent="j1aBg7FLUdjyBQEvdYvV-38">
          <mxGeometry width="50" height="50" relative="1" as="geometry">
            <mxPoint x="50" y="130" as="sourcePoint" />
            <mxPoint x="100" y="80" as="targetPoint" />
          </mxGeometry>
        </mxCell>
        <mxCell id="j1aBg7FLUdjyBQEvdYvV-43" value="Autoscale" style="text;html=1;align=center;verticalAlign=middle;resizable=0;points=[];autosize=1;strokeColor=none;fillColor=none;" vertex="1" parent="j1aBg7FLUdjyBQEvdYvV-38">
          <mxGeometry y="80" width="80" height="30" as="geometry" />
        </mxCell>
        <mxCell id="j1aBg7FLUdjyBQEvdYvV-44" value="Storage" style="shape=cylinder3;whiteSpace=wrap;html=1;boundedLbl=1;backgroundOutline=1;size=15;" vertex="1" parent="j1aBg7FLUdjyBQEvdYvV-38">
          <mxGeometry x="80" y="190" width="60" height="80" as="geometry" />
        </mxCell>
        <mxCell id="j1aBg7FLUdjyBQEvdYvV-79" value="" style="edgeStyle=orthogonalEdgeStyle;rounded=0;orthogonalLoop=1;jettySize=auto;html=1;" edge="1" parent="j1aBg7FLUdjyBQEvdYvV-38" source="j1aBg7FLUdjyBQEvdYvV-78" target="j1aBg7FLUdjyBQEvdYvV-41">
          <mxGeometry relative="1" as="geometry" />
        </mxCell>
        <mxCell id="j1aBg7FLUdjyBQEvdYvV-78" value="&lt;div&gt;&lt;font style=&quot;font-size: 9px;&quot;&gt;&lt;span style=&quot;background-color: initial;&quot;&gt;Load&lt;/span&gt;&lt;br&gt;&lt;/font&gt;&lt;/div&gt;&lt;div&gt;&lt;font style=&quot;font-size: 9px;&quot;&gt;&lt;span style=&quot;background-color: initial;&quot;&gt;Balancer&lt;/span&gt;&lt;/font&gt;&lt;/div&gt;" style="ellipse;whiteSpace=wrap;html=1;aspect=fixed;" vertex="1" parent="j1aBg7FLUdjyBQEvdYvV-38">
          <mxGeometry x="107.5" y="10" width="45" height="45" as="geometry" />
        </mxCell>
        <mxCell id="j1aBg7FLUdjyBQEvdYvV-46" style="edgeStyle=orthogonalEdgeStyle;rounded=0;orthogonalLoop=1;jettySize=auto;html=1;entryX=0.5;entryY=0;entryDx=0;entryDy=0;" edge="1" parent="1" source="j1aBg7FLUdjyBQEvdYvV-37" target="j1aBg7FLUdjyBQEvdYvV-78">
          <mxGeometry relative="1" as="geometry" />
        </mxCell>
        <mxCell id="j1aBg7FLUdjyBQEvdYvV-47" value="Zone A" style="shape=mxgraph.ibm.box;prType=zone;fontStyle=0;verticalAlign=top;align=left;spacingLeft=32;spacingTop=4;fillColor=#E0E0E0;rounded=0;whiteSpace=wrap;html=1;strokeColor=#919191;strokeWidth=1;dashed=0;container=1;spacing=-4;collapsible=0;expand=0;recursiveResize=0;" vertex="1" parent="1">
          <mxGeometry x="560" y="250" width="180" height="300" as="geometry" />
        </mxCell>
        <mxCell id="j1aBg7FLUdjyBQEvdYvV-48" value="Compute" style="whiteSpace=wrap;html=1;aspect=fixed;" vertex="1" parent="j1aBg7FLUdjyBQEvdYvV-47">
          <mxGeometry x="80" y="110" width="60" height="60" as="geometry" />
        </mxCell>
        <mxCell id="j1aBg7FLUdjyBQEvdYvV-49" value="Compute" style="whiteSpace=wrap;html=1;aspect=fixed;" vertex="1" parent="j1aBg7FLUdjyBQEvdYvV-47">
          <mxGeometry x="90" y="100" width="60" height="60" as="geometry" />
        </mxCell>
        <mxCell id="j1aBg7FLUdjyBQEvdYvV-50" value="Compute" style="whiteSpace=wrap;html=1;aspect=fixed;" vertex="1" parent="j1aBg7FLUdjyBQEvdYvV-47">
          <mxGeometry x="100" y="90" width="60" height="60" as="geometry" />
        </mxCell>
        <mxCell id="j1aBg7FLUdjyBQEvdYvV-51" value="" style="endArrow=classic;startArrow=classic;html=1;rounded=0;" edge="1" parent="j1aBg7FLUdjyBQEvdYvV-47">
          <mxGeometry width="50" height="50" relative="1" as="geometry">
            <mxPoint x="50" y="130" as="sourcePoint" />
            <mxPoint x="100" y="80" as="targetPoint" />
          </mxGeometry>
        </mxCell>
        <mxCell id="j1aBg7FLUdjyBQEvdYvV-52" value="Autoscale" style="text;html=1;align=center;verticalAlign=middle;resizable=0;points=[];autosize=1;strokeColor=none;fillColor=none;" vertex="1" parent="j1aBg7FLUdjyBQEvdYvV-47">
          <mxGeometry y="80" width="80" height="30" as="geometry" />
        </mxCell>
        <mxCell id="j1aBg7FLUdjyBQEvdYvV-53" value="Storage" style="shape=cylinder3;whiteSpace=wrap;html=1;boundedLbl=1;backgroundOutline=1;size=15;" vertex="1" parent="j1aBg7FLUdjyBQEvdYvV-47">
          <mxGeometry x="80" y="190" width="60" height="80" as="geometry" />
        </mxCell>
        <mxCell id="j1aBg7FLUdjyBQEvdYvV-81" value="" style="edgeStyle=orthogonalEdgeStyle;rounded=0;orthogonalLoop=1;jettySize=auto;html=1;" edge="1" parent="j1aBg7FLUdjyBQEvdYvV-47" source="j1aBg7FLUdjyBQEvdYvV-80" target="j1aBg7FLUdjyBQEvdYvV-50">
          <mxGeometry relative="1" as="geometry" />
        </mxCell>
        <mxCell id="j1aBg7FLUdjyBQEvdYvV-80" value="&lt;div&gt;&lt;font style=&quot;font-size: 9px;&quot;&gt;&lt;span style=&quot;background-color: initial;&quot;&gt;Load&lt;/span&gt;&lt;br&gt;&lt;/font&gt;&lt;/div&gt;&lt;div&gt;&lt;font style=&quot;font-size: 9px;&quot;&gt;&lt;span style=&quot;background-color: initial;&quot;&gt;Balancer&lt;/span&gt;&lt;/font&gt;&lt;/div&gt;" style="ellipse;whiteSpace=wrap;html=1;aspect=fixed;" vertex="1" parent="j1aBg7FLUdjyBQEvdYvV-47">
          <mxGeometry x="107.5" y="10" width="45" height="45" as="geometry" />
        </mxCell>
        <mxCell id="j1aBg7FLUdjyBQEvdYvV-54" style="edgeStyle=orthogonalEdgeStyle;rounded=0;orthogonalLoop=1;jettySize=auto;html=1;entryX=0.5;entryY=0;entryDx=0;entryDy=0;" edge="1" parent="1" source="j1aBg7FLUdjyBQEvdYvV-63" target="j1aBg7FLUdjyBQEvdYvV-80">
          <mxGeometry relative="1" as="geometry" />
        </mxCell>
        <mxCell id="j1aBg7FLUdjyBQEvdYvV-55" value="Zone B" style="shape=mxgraph.ibm.box;prType=zone;fontStyle=0;verticalAlign=top;align=left;spacingLeft=32;spacingTop=4;fillColor=#E0E0E0;rounded=0;whiteSpace=wrap;html=1;strokeColor=#919191;strokeWidth=1;dashed=0;container=1;spacing=-4;collapsible=0;expand=0;recursiveResize=0;" vertex="1" parent="1">
          <mxGeometry x="810" y="250" width="180" height="300" as="geometry" />
        </mxCell>
        <mxCell id="j1aBg7FLUdjyBQEvdYvV-56" value="Compute" style="whiteSpace=wrap;html=1;aspect=fixed;" vertex="1" parent="j1aBg7FLUdjyBQEvdYvV-55">
          <mxGeometry x="80" y="110" width="60" height="60" as="geometry" />
        </mxCell>
        <mxCell id="j1aBg7FLUdjyBQEvdYvV-57" value="Compute" style="whiteSpace=wrap;html=1;aspect=fixed;" vertex="1" parent="j1aBg7FLUdjyBQEvdYvV-55">
          <mxGeometry x="90" y="100" width="60" height="60" as="geometry" />
        </mxCell>
        <mxCell id="j1aBg7FLUdjyBQEvdYvV-58" value="Compute" style="whiteSpace=wrap;html=1;aspect=fixed;" vertex="1" parent="j1aBg7FLUdjyBQEvdYvV-55">
          <mxGeometry x="100" y="90" width="60" height="60" as="geometry" />
        </mxCell>
        <mxCell id="j1aBg7FLUdjyBQEvdYvV-59" value="" style="endArrow=classic;startArrow=classic;html=1;rounded=0;" edge="1" parent="j1aBg7FLUdjyBQEvdYvV-55">
          <mxGeometry width="50" height="50" relative="1" as="geometry">
            <mxPoint x="50" y="130" as="sourcePoint" />
            <mxPoint x="100" y="80" as="targetPoint" />
          </mxGeometry>
        </mxCell>
        <mxCell id="j1aBg7FLUdjyBQEvdYvV-60" value="Autoscale" style="text;html=1;align=center;verticalAlign=middle;resizable=0;points=[];autosize=1;strokeColor=none;fillColor=none;" vertex="1" parent="j1aBg7FLUdjyBQEvdYvV-55">
          <mxGeometry y="80" width="80" height="30" as="geometry" />
        </mxCell>
        <mxCell id="j1aBg7FLUdjyBQEvdYvV-61" value="Storage" style="shape=cylinder3;whiteSpace=wrap;html=1;boundedLbl=1;backgroundOutline=1;size=15;" vertex="1" parent="j1aBg7FLUdjyBQEvdYvV-55">
          <mxGeometry x="80" y="190" width="60" height="80" as="geometry" />
        </mxCell>
        <mxCell id="j1aBg7FLUdjyBQEvdYvV-83" value="" style="edgeStyle=orthogonalEdgeStyle;rounded=0;orthogonalLoop=1;jettySize=auto;html=1;" edge="1" parent="j1aBg7FLUdjyBQEvdYvV-55" source="j1aBg7FLUdjyBQEvdYvV-82" target="j1aBg7FLUdjyBQEvdYvV-58">
          <mxGeometry relative="1" as="geometry" />
        </mxCell>
        <mxCell id="j1aBg7FLUdjyBQEvdYvV-82" value="&lt;div&gt;&lt;font style=&quot;font-size: 9px;&quot;&gt;&lt;span style=&quot;background-color: initial;&quot;&gt;Load&lt;/span&gt;&lt;br&gt;&lt;/font&gt;&lt;/div&gt;&lt;div&gt;&lt;font style=&quot;font-size: 9px;&quot;&gt;&lt;span style=&quot;background-color: initial;&quot;&gt;Balancer&lt;/span&gt;&lt;/font&gt;&lt;/div&gt;" style="ellipse;whiteSpace=wrap;html=1;aspect=fixed;" vertex="1" parent="j1aBg7FLUdjyBQEvdYvV-55">
          <mxGeometry x="107.5" y="10" width="45" height="45" as="geometry" />
        </mxCell>
        <mxCell id="j1aBg7FLUdjyBQEvdYvV-62" style="edgeStyle=orthogonalEdgeStyle;rounded=0;orthogonalLoop=1;jettySize=auto;html=1;entryX=0.5;entryY=0;entryDx=0;entryDy=0;" edge="1" parent="1" source="j1aBg7FLUdjyBQEvdYvV-63" target="j1aBg7FLUdjyBQEvdYvV-82">
          <mxGeometry relative="1" as="geometry" />
        </mxCell>
        <mxCell id="j1aBg7FLUdjyBQEvdYvV-65" style="edgeStyle=orthogonalEdgeStyle;rounded=0;orthogonalLoop=1;jettySize=auto;html=1;" edge="1" parent="1" source="j1aBg7FLUdjyBQEvdYvV-12" target="j1aBg7FLUdjyBQEvdYvV-44">
          <mxGeometry relative="1" as="geometry" />
        </mxCell>
        <mxCell id="j1aBg7FLUdjyBQEvdYvV-66" value="Replication" style="edgeLabel;html=1;align=center;verticalAlign=middle;resizable=0;points=[];" vertex="1" connectable="0" parent="j1aBg7FLUdjyBQEvdYvV-65">
          <mxGeometry x="-0.1895" y="2" relative="1" as="geometry">
            <mxPoint as="offset" />
          </mxGeometry>
        </mxCell>
        <mxCell id="j1aBg7FLUdjyBQEvdYvV-67" style="edgeStyle=orthogonalEdgeStyle;rounded=0;orthogonalLoop=1;jettySize=auto;html=1;entryX=0.5;entryY=1;entryDx=0;entryDy=0;entryPerimeter=0;" edge="1" parent="1" source="j1aBg7FLUdjyBQEvdYvV-12" target="j1aBg7FLUdjyBQEvdYvV-53">
          <mxGeometry relative="1" as="geometry">
            <Array as="points">
              <mxPoint x="170" y="580" />
              <mxPoint x="670" y="580" />
            </Array>
          </mxGeometry>
        </mxCell>
        <mxCell id="j1aBg7FLUdjyBQEvdYvV-68" value="Cross Region Replication" style="edgeLabel;html=1;align=center;verticalAlign=middle;resizable=0;points=[];" vertex="1" connectable="0" parent="j1aBg7FLUdjyBQEvdYvV-67">
          <mxGeometry x="-0.1226" y="1" relative="1" as="geometry">
            <mxPoint as="offset" />
          </mxGeometry>
        </mxCell>
        <mxCell id="j1aBg7FLUdjyBQEvdYvV-69" style="edgeStyle=orthogonalEdgeStyle;rounded=0;orthogonalLoop=1;jettySize=auto;html=1;" edge="1" parent="1" source="j1aBg7FLUdjyBQEvdYvV-53" target="j1aBg7FLUdjyBQEvdYvV-61">
          <mxGeometry relative="1" as="geometry" />
        </mxCell>
        <mxCell id="j1aBg7FLUdjyBQEvdYvV-70" value="Replication" style="edgeLabel;html=1;align=center;verticalAlign=middle;resizable=0;points=[];" vertex="1" connectable="0" parent="j1aBg7FLUdjyBQEvdYvV-69">
          <mxGeometry x="-0.1368" y="2" relative="1" as="geometry">
            <mxPoint x="-7" y="2" as="offset" />
          </mxGeometry>
        </mxCell>
        <mxCell id="j1aBg7FLUdjyBQEvdYvV-86" value="DNS" style="rhombus;whiteSpace=wrap;html=1;" vertex="1" parent="1">
          <mxGeometry x="560" y="-10" width="50" height="50" as="geometry" />
        </mxCell>
        <mxCell id="j1aBg7FLUdjyBQEvdYvV-89" value="" style="edgeStyle=orthogonalEdgeStyle;rounded=0;orthogonalLoop=1;jettySize=auto;html=1;entryX=0.5;entryY=0;entryDx=0;entryDy=0;" edge="1" parent="1" source="j1aBg7FLUdjyBQEvdYvV-88" target="j1aBg7FLUdjyBQEvdYvV-10">
          <mxGeometry relative="1" as="geometry" />
        </mxCell>
        <mxCell id="j1aBg7FLUdjyBQEvdYvV-88" value="" style="sketch=0;outlineConnect=0;fontColor=#232F3E;gradientColor=none;fillColor=#232F3D;strokeColor=none;dashed=0;verticalLabelPosition=bottom;verticalAlign=top;align=center;html=1;fontSize=12;fontStyle=0;aspect=fixed;pointerEvents=1;shape=mxgraph.aws4.authenticated_user;" vertex="1" parent="1">
          <mxGeometry x="504" y="-80" width="42" height="42" as="geometry" />
        </mxCell>
        <mxCell id="ViFj5e4DzjkYY_HlxS4O-1" value="User" style="text;html=1;align=center;verticalAlign=middle;resizable=0;points=[];autosize=1;strokeColor=none;fillColor=none;" vertex="1" parent="1">
          <mxGeometry x="455" y="-42" width="50" height="30" as="geometry" />
        </mxCell>
      </root>
    </mxGraphModel>
  </diagram>
  <diagram id="-usPMQ3uf85nDuPlh6Su" name="compute-ha-dr">
    <mxGraphModel dx="1098" dy="820" grid="1" gridSize="10" guides="1" tooltips="1" connect="1" arrows="1" fold="1" page="1" pageScale="1" pageWidth="827" pageHeight="1169" math="0" shadow="0">
      <root>
        <mxCell id="0" />
        <mxCell id="1" parent="0" />
        <mxCell id="cVFPnSrdtZw5a2vmp3Mt-1" value="Compute" style="whiteSpace=wrap;html=1;aspect=fixed;opacity=50;fixDash=0;backgroundOutline=0;textOpacity=50;" vertex="1" parent="1">
          <mxGeometry x="240" y="310" width="60" height="60" as="geometry" />
        </mxCell>
        <mxCell id="cVFPnSrdtZw5a2vmp3Mt-2" value="Compute" style="whiteSpace=wrap;html=1;aspect=fixed;opacity=50;fixDash=0;backgroundOutline=0;textOpacity=50;" vertex="1" parent="1">
          <mxGeometry x="250" y="300" width="60" height="60" as="geometry" />
        </mxCell>
        <mxCell id="cVFPnSrdtZw5a2vmp3Mt-3" value="Compute" style="whiteSpace=wrap;html=1;aspect=fixed;opacity=50;fixDash=0;backgroundOutline=0;textOpacity=50;" vertex="1" parent="1">
          <mxGeometry x="260" y="290" width="60" height="60" as="geometry" />
        </mxCell>
        <mxCell id="fEeCVX3M0BMNK4dJsxwT-1" value="" style="endArrow=classic;startArrow=classic;html=1;rounded=0;opacity=50;fixDash=0;backgroundOutline=0;textOpacity=50;" edge="1" parent="1">
          <mxGeometry width="50" height="50" relative="1" as="geometry">
            <mxPoint x="210" y="320" as="sourcePoint" />
            <mxPoint x="260" y="270" as="targetPoint" />
          </mxGeometry>
        </mxCell>
        <mxCell id="fEeCVX3M0BMNK4dJsxwT-2" value="Autoscale" style="text;html=1;align=center;verticalAlign=middle;resizable=0;points=[];autosize=1;strokeColor=none;fillColor=none;opacity=50;fixDash=0;backgroundOutline=0;textOpacity=50;" vertex="1" parent="1">
          <mxGeometry x="160" y="270" width="80" height="30" as="geometry" />
        </mxCell>
        <mxCell id="ZRew9OFdprurZIsfWfwX-2" style="edgeStyle=orthogonalEdgeStyle;rounded=0;orthogonalLoop=1;jettySize=auto;html=1;entryX=0.5;entryY=0;entryDx=0;entryDy=0;opacity=50;" edge="1" parent="1" source="ZRew9OFdprurZIsfWfwX-9" target="cVFPnSrdtZw5a2vmp3Mt-3">
          <mxGeometry relative="1" as="geometry" />
        </mxCell>
        <mxCell id="ZRew9OFdprurZIsfWfwX-8" style="edgeStyle=orthogonalEdgeStyle;rounded=0;orthogonalLoop=1;jettySize=auto;html=1;entryX=0.5;entryY=0;entryDx=0;entryDy=0;" edge="1" parent="1" source="ZRew9OFdprurZIsfWfwX-1" target="ZRew9OFdprurZIsfWfwX-5">
          <mxGeometry relative="1" as="geometry" />
        </mxCell>
        <mxCell id="ZRew9OFdprurZIsfWfwX-1" value="&lt;div&gt;&lt;span style=&quot;background-color: initial;&quot;&gt;Load&lt;/span&gt;&lt;br&gt;&lt;/div&gt;&lt;div&gt;Balancer&lt;/div&gt;" style="ellipse;whiteSpace=wrap;html=1;aspect=fixed;" vertex="1" parent="1">
          <mxGeometry x="350" y="150" width="70" height="70" as="geometry" />
        </mxCell>
        <mxCell id="ZRew9OFdprurZIsfWfwX-3" value="Compute" style="whiteSpace=wrap;html=1;aspect=fixed;" vertex="1" parent="1">
          <mxGeometry x="440" y="310" width="60" height="60" as="geometry" />
        </mxCell>
        <mxCell id="ZRew9OFdprurZIsfWfwX-4" value="Compute" style="whiteSpace=wrap;html=1;aspect=fixed;" vertex="1" parent="1">
          <mxGeometry x="450" y="300" width="60" height="60" as="geometry" />
        </mxCell>
        <mxCell id="ZRew9OFdprurZIsfWfwX-5" value="Compute" style="whiteSpace=wrap;html=1;aspect=fixed;" vertex="1" parent="1">
          <mxGeometry x="460" y="290" width="60" height="60" as="geometry" />
        </mxCell>
        <mxCell id="ZRew9OFdprurZIsfWfwX-6" value="" style="endArrow=classic;startArrow=classic;html=1;rounded=0;" edge="1" parent="1">
          <mxGeometry width="50" height="50" relative="1" as="geometry">
            <mxPoint x="410" y="320" as="sourcePoint" />
            <mxPoint x="460" y="270" as="targetPoint" />
          </mxGeometry>
        </mxCell>
        <mxCell id="ZRew9OFdprurZIsfWfwX-7" value="Autoscale" style="text;html=1;align=center;verticalAlign=middle;resizable=0;points=[];autosize=1;strokeColor=none;fillColor=none;" vertex="1" parent="1">
          <mxGeometry x="360" y="270" width="80" height="30" as="geometry" />
        </mxCell>
        <mxCell id="ZRew9OFdprurZIsfWfwX-12" value="" style="edgeStyle=orthogonalEdgeStyle;rounded=0;orthogonalLoop=1;jettySize=auto;html=1;entryX=0.5;entryY=0;entryDx=0;entryDy=0;" edge="1" parent="1" source="ZRew9OFdprurZIsfWfwX-1" target="ZRew9OFdprurZIsfWfwX-9">
          <mxGeometry relative="1" as="geometry">
            <mxPoint x="350" y="185" as="sourcePoint" />
            <mxPoint x="290" y="290" as="targetPoint" />
          </mxGeometry>
        </mxCell>
        <mxCell id="ZRew9OFdprurZIsfWfwX-9" value="" style="shape=mxgraph.mockup.markup.redX;fillColor=#ff0000;html=1;shadow=0;whiteSpace=wrap;strokeColor=none;" vertex="1" parent="1">
          <mxGeometry x="270" y="230" width="40" height="30" as="geometry" />
        </mxCell>
        <mxCell id="ZRew9OFdprurZIsfWfwX-13" value="Zonal Failure - Retry to new Zone" style="text;html=1;align=center;verticalAlign=middle;resizable=0;points=[];autosize=1;strokeColor=none;fillColor=none;" vertex="1" parent="1">
          <mxGeometry x="430" y="110" width="200" height="30" as="geometry" />
        </mxCell>
        <mxCell id="ZRew9OFdprurZIsfWfwX-14" value="Regionl Failure - Retry to new Region" style="text;html=1;align=center;verticalAlign=middle;resizable=0;points=[];autosize=1;strokeColor=none;fillColor=none;" vertex="1" parent="1">
          <mxGeometry x="430" y="140" width="220" height="30" as="geometry" />
        </mxCell>
      </root>
    </mxGraphModel>
  </diagram>
  <diagram id="aigTvfo7dm2ocIp7PcNM" name="storage-ha-dr">
    <mxGraphModel dx="1292" dy="965" grid="1" gridSize="10" guides="1" tooltips="1" connect="1" arrows="1" fold="1" page="1" pageScale="1" pageWidth="827" pageHeight="1169" math="0" shadow="0">
      <root>
        <mxCell id="0" />
        <mxCell id="1" parent="0" />
        <mxCell id="3UOPdgRfprQltqBA0fd9-2" value="" style="edgeStyle=orthogonalEdgeStyle;rounded=0;orthogonalLoop=1;jettySize=auto;html=1;" edge="1" parent="1" source="SfJLbrLB6Kw0tcY7rAYP-1" target="3UOPdgRfprQltqBA0fd9-1">
          <mxGeometry relative="1" as="geometry" />
        </mxCell>
        <mxCell id="3UOPdgRfprQltqBA0fd9-6" value="Replication" style="edgeLabel;html=1;align=center;verticalAlign=middle;resizable=0;points=[];" vertex="1" connectable="0" parent="3UOPdgRfprQltqBA0fd9-2">
          <mxGeometry x="-0.2" y="1" relative="1" as="geometry">
            <mxPoint as="offset" />
          </mxGeometry>
        </mxCell>
        <mxCell id="SfJLbrLB6Kw0tcY7rAYP-1" value="Storage A" style="shape=cylinder3;whiteSpace=wrap;html=1;boundedLbl=1;backgroundOutline=1;size=15;textOpacity=50;" vertex="1" parent="1">
          <mxGeometry x="260" y="250" width="60" height="80" as="geometry" />
        </mxCell>
        <mxCell id="3UOPdgRfprQltqBA0fd9-1" value="Storage B" style="shape=cylinder3;whiteSpace=wrap;html=1;boundedLbl=1;backgroundOutline=1;size=15;" vertex="1" parent="1">
          <mxGeometry x="430" y="250" width="60" height="80" as="geometry" />
        </mxCell>
        <mxCell id="3UOPdgRfprQltqBA0fd9-4" value="" style="shape=mxgraph.mockup.markup.redX;fillColor=#ff0000;html=1;shadow=0;whiteSpace=wrap;strokeColor=none;" vertex="1" parent="1">
          <mxGeometry x="220" y="220" width="30" height="30" as="geometry" />
        </mxCell>
        <mxCell id="3UOPdgRfprQltqBA0fd9-5" value="Zonal/Regional Failure" style="text;html=1;align=center;verticalAlign=middle;resizable=0;points=[];autosize=1;strokeColor=none;fillColor=none;" vertex="1" parent="1">
          <mxGeometry x="240" y="220" width="140" height="30" as="geometry" />
        </mxCell>
        <mxCell id="3UOPdgRfprQltqBA0fd9-26" style="edgeStyle=orthogonalEdgeStyle;rounded=0;orthogonalLoop=1;jettySize=auto;html=1;exitX=0;exitY=0.5;exitDx=0;exitDy=0;exitPerimeter=0;" edge="1" parent="1" source="3UOPdgRfprQltqBA0fd9-9" target="3UOPdgRfprQltqBA0fd9-27">
          <mxGeometry relative="1" as="geometry">
            <mxPoint x="570" y="350" as="targetPoint" />
          </mxGeometry>
        </mxCell>
        <mxCell id="3UOPdgRfprQltqBA0fd9-9" value="Storage A" style="shape=cylinder3;whiteSpace=wrap;html=1;boundedLbl=1;backgroundOutline=1;size=15;textOpacity=50;" vertex="1" parent="1">
          <mxGeometry x="630" y="250" width="60" height="80" as="geometry" />
        </mxCell>
        <mxCell id="3UOPdgRfprQltqBA0fd9-10" value="Storage B" style="shape=cylinder3;whiteSpace=wrap;html=1;boundedLbl=1;backgroundOutline=1;size=15;" vertex="1" parent="1">
          <mxGeometry x="800" y="250" width="60" height="80" as="geometry" />
        </mxCell>
        <mxCell id="3UOPdgRfprQltqBA0fd9-11" value="" style="shape=mxgraph.mockup.markup.redX;fillColor=#ff0000;html=1;shadow=0;whiteSpace=wrap;strokeColor=none;" vertex="1" parent="1">
          <mxGeometry x="590" y="220" width="30" height="30" as="geometry" />
        </mxCell>
        <mxCell id="3UOPdgRfprQltqBA0fd9-12" value="Zonal/Regional Failure" style="text;html=1;align=center;verticalAlign=middle;resizable=0;points=[];autosize=1;strokeColor=none;fillColor=none;" vertex="1" parent="1">
          <mxGeometry x="615" y="220" width="140" height="30" as="geometry" />
        </mxCell>
        <mxCell id="3UOPdgRfprQltqBA0fd9-13" value="&lt;font style=&quot;font-size: 14px;&quot;&gt;Recovery&lt;/font&gt;" style="text;html=1;align=center;verticalAlign=middle;resizable=0;points=[];autosize=1;strokeColor=none;fillColor=none;" vertex="1" parent="1">
          <mxGeometry x="715" y="140" width="80" height="30" as="geometry" />
        </mxCell>
        <mxCell id="3UOPdgRfprQltqBA0fd9-14" value="&lt;font style=&quot;font-size: 14px;&quot;&gt;Failure&lt;/font&gt;" style="text;html=1;align=center;verticalAlign=middle;resizable=0;points=[];autosize=1;strokeColor=none;fillColor=none;" vertex="1" parent="1">
          <mxGeometry x="335" y="140" width="70" height="30" as="geometry" />
        </mxCell>
        <mxCell id="3UOPdgRfprQltqBA0fd9-15" value="Storage C" style="shape=cylinder3;whiteSpace=wrap;html=1;boundedLbl=1;backgroundOutline=1;size=15;" vertex="1" parent="1">
          <mxGeometry x="630" y="380" width="60" height="80" as="geometry" />
        </mxCell>
        <mxCell id="3UOPdgRfprQltqBA0fd9-16" style="edgeStyle=orthogonalEdgeStyle;rounded=0;orthogonalLoop=1;jettySize=auto;html=1;entryX=1;entryY=0.5;entryDx=0;entryDy=0;entryPerimeter=0;exitX=0.5;exitY=1;exitDx=0;exitDy=0;exitPerimeter=0;" edge="1" parent="1" source="3UOPdgRfprQltqBA0fd9-10" target="3UOPdgRfprQltqBA0fd9-15">
          <mxGeometry relative="1" as="geometry" />
        </mxCell>
        <mxCell id="3UOPdgRfprQltqBA0fd9-17" value="New Replication" style="edgeLabel;html=1;align=center;verticalAlign=middle;resizable=0;points=[];" vertex="1" connectable="0" parent="3UOPdgRfprQltqBA0fd9-16">
          <mxGeometry x="0.2783" y="3" relative="1" as="geometry">
            <mxPoint x="-3" y="-3" as="offset" />
          </mxGeometry>
        </mxCell>
        <mxCell id="3UOPdgRfprQltqBA0fd9-18" value="Primary" style="text;html=1;align=center;verticalAlign=middle;resizable=0;points=[];autosize=1;strokeColor=none;fillColor=none;" vertex="1" parent="1">
          <mxGeometry x="260" y="340" width="60" height="30" as="geometry" />
        </mxCell>
        <mxCell id="3UOPdgRfprQltqBA0fd9-19" value="Secondary" style="text;html=1;align=center;verticalAlign=middle;resizable=0;points=[];autosize=1;strokeColor=none;fillColor=none;" vertex="1" parent="1">
          <mxGeometry x="420" y="338" width="80" height="30" as="geometry" />
        </mxCell>
        <mxCell id="3UOPdgRfprQltqBA0fd9-20" value="Primary" style="text;html=1;align=center;verticalAlign=middle;resizable=0;points=[];autosize=1;strokeColor=none;fillColor=none;" vertex="1" parent="1">
          <mxGeometry x="840" y="328" width="60" height="30" as="geometry" />
        </mxCell>
        <mxCell id="3UOPdgRfprQltqBA0fd9-21" value="Secondary" style="text;html=1;align=center;verticalAlign=middle;resizable=0;points=[];autosize=1;strokeColor=none;fillColor=none;" vertex="1" parent="1">
          <mxGeometry x="620" y="470" width="80" height="30" as="geometry" />
        </mxCell>
        <mxCell id="3UOPdgRfprQltqBA0fd9-25" value="To be Purged" style="text;html=1;align=center;verticalAlign=middle;resizable=0;points=[];autosize=1;strokeColor=none;fillColor=none;" vertex="1" parent="1">
          <mxGeometry x="615" y="328" width="90" height="30" as="geometry" />
        </mxCell>
        <mxCell id="3UOPdgRfprQltqBA0fd9-27" value="Backup before Purgeing" style="rounded=1;whiteSpace=wrap;html=1;" vertex="1" parent="1">
          <mxGeometry x="510" y="525" width="120" height="60" as="geometry" />
        </mxCell>
        <mxCell id="3UOPdgRfprQltqBA0fd9-28" value="" style="endArrow=none;dashed=1;html=1;dashPattern=1 3;strokeWidth=2;rounded=0;" edge="1" parent="1">
          <mxGeometry width="50" height="50" relative="1" as="geometry">
            <mxPoint x="380" y="440" as="sourcePoint" />
            <mxPoint x="380" y="200" as="targetPoint" />
          </mxGeometry>
        </mxCell>
        <mxCell id="3UOPdgRfprQltqBA0fd9-29" value="" style="endArrow=none;dashed=1;html=1;dashPattern=1 3;strokeWidth=2;rounded=0;" edge="1" parent="1">
          <mxGeometry width="50" height="50" relative="1" as="geometry">
            <mxPoint x="755" y="530" as="sourcePoint" />
            <mxPoint x="754.5" y="200" as="targetPoint" />
          </mxGeometry>
        </mxCell>
        <mxCell id="3UOPdgRfprQltqBA0fd9-30" value="Zone A/Region 1" style="text;html=1;align=center;verticalAlign=middle;resizable=0;points=[];autosize=1;strokeColor=none;fillColor=none;" vertex="1" parent="1">
          <mxGeometry x="240" y="180" width="110" height="30" as="geometry" />
        </mxCell>
        <mxCell id="3UOPdgRfprQltqBA0fd9-31" value="Zone A/Region 2" style="text;html=1;align=center;verticalAlign=middle;resizable=0;points=[];autosize=1;strokeColor=none;fillColor=none;" vertex="1" parent="1">
          <mxGeometry x="395" y="180" width="110" height="30" as="geometry" />
        </mxCell>
        <mxCell id="3UOPdgRfprQltqBA0fd9-32" value="Zone A/Region 1" style="text;html=1;align=center;verticalAlign=middle;resizable=0;points=[];autosize=1;strokeColor=none;fillColor=none;" vertex="1" parent="1">
          <mxGeometry x="615" y="180" width="110" height="30" as="geometry" />
        </mxCell>
        <mxCell id="3UOPdgRfprQltqBA0fd9-33" value="Zone B/Region 2" style="text;html=1;align=center;verticalAlign=middle;resizable=0;points=[];autosize=1;strokeColor=none;fillColor=none;" vertex="1" parent="1">
          <mxGeometry x="765" y="180" width="110" height="30" as="geometry" />
        </mxCell>
        <mxCell id="IyOS71oro97ILsGKfFHK-17" style="edgeStyle=orthogonalEdgeStyle;rounded=0;orthogonalLoop=1;jettySize=auto;html=1;exitX=1;exitY=0.5;exitDx=0;exitDy=0;exitPerimeter=0;" edge="1" parent="1" source="IyOS71oro97ILsGKfFHK-3" target="IyOS71oro97ILsGKfFHK-16">
          <mxGeometry relative="1" as="geometry" />
        </mxCell>
        <mxCell id="IyOS71oro97ILsGKfFHK-3" value="Storage B" style="shape=cylinder3;whiteSpace=wrap;html=1;boundedLbl=1;backgroundOutline=1;size=15;textOpacity=50;" vertex="1" parent="1">
          <mxGeometry x="1180" y="245" width="60" height="80" as="geometry" />
        </mxCell>
        <mxCell id="IyOS71oro97ILsGKfFHK-4" value="" style="shape=mxgraph.mockup.markup.redX;fillColor=#ff0000;html=1;shadow=0;whiteSpace=wrap;strokeColor=none;" vertex="1" parent="1">
          <mxGeometry x="970" y="215" width="30" height="30" as="geometry" />
        </mxCell>
        <mxCell id="IyOS71oro97ILsGKfFHK-5" value="Zonal/Regional Failure" style="text;html=1;align=center;verticalAlign=middle;resizable=0;points=[];autosize=1;strokeColor=none;fillColor=none;" vertex="1" parent="1">
          <mxGeometry x="995" y="215" width="140" height="30" as="geometry" />
        </mxCell>
        <mxCell id="IyOS71oro97ILsGKfFHK-19" value="" style="edgeStyle=orthogonalEdgeStyle;rounded=0;orthogonalLoop=1;jettySize=auto;html=1;" edge="1" parent="1" source="IyOS71oro97ILsGKfFHK-6" target="IyOS71oro97ILsGKfFHK-18">
          <mxGeometry relative="1" as="geometry" />
        </mxCell>
        <mxCell id="IyOS71oro97ILsGKfFHK-20" value="Replication" style="edgeLabel;html=1;align=center;verticalAlign=middle;resizable=0;points=[];" vertex="1" connectable="0" parent="IyOS71oro97ILsGKfFHK-19">
          <mxGeometry x="-0.0811" y="-2" relative="1" as="geometry">
            <mxPoint as="offset" />
          </mxGeometry>
        </mxCell>
        <mxCell id="IyOS71oro97ILsGKfFHK-6" value="Storage C" style="shape=cylinder3;whiteSpace=wrap;html=1;boundedLbl=1;backgroundOutline=1;size=15;" vertex="1" parent="1">
          <mxGeometry x="1010" y="375" width="60" height="80" as="geometry" />
        </mxCell>
        <mxCell id="IyOS71oro97ILsGKfFHK-9" value="Primary" style="text;html=1;align=center;verticalAlign=middle;resizable=0;points=[];autosize=1;strokeColor=none;fillColor=none;" vertex="1" parent="1">
          <mxGeometry x="1010" y="460" width="60" height="30" as="geometry" />
        </mxCell>
        <mxCell id="IyOS71oro97ILsGKfFHK-10" value="Secondary" style="text;html=1;align=center;verticalAlign=middle;resizable=0;points=[];autosize=1;strokeColor=none;fillColor=none;" vertex="1" parent="1">
          <mxGeometry x="1175" y="460" width="80" height="30" as="geometry" />
        </mxCell>
        <mxCell id="IyOS71oro97ILsGKfFHK-12" value="" style="endArrow=none;dashed=1;html=1;dashPattern=1 3;strokeWidth=2;rounded=0;" edge="1" parent="1">
          <mxGeometry width="50" height="50" relative="1" as="geometry">
            <mxPoint x="1135" y="525" as="sourcePoint" />
            <mxPoint x="1134.5" y="195" as="targetPoint" />
          </mxGeometry>
        </mxCell>
        <mxCell id="IyOS71oro97ILsGKfFHK-13" value="Zone A/Region 1" style="text;html=1;align=center;verticalAlign=middle;resizable=0;points=[];autosize=1;strokeColor=none;fillColor=none;" vertex="1" parent="1">
          <mxGeometry x="995" y="175" width="110" height="30" as="geometry" />
        </mxCell>
        <mxCell id="IyOS71oro97ILsGKfFHK-14" value="Zone B/Region 2" style="text;html=1;align=center;verticalAlign=middle;resizable=0;points=[];autosize=1;strokeColor=none;fillColor=none;" vertex="1" parent="1">
          <mxGeometry x="1145" y="175" width="110" height="30" as="geometry" />
        </mxCell>
        <mxCell id="IyOS71oro97ILsGKfFHK-15" value="Fallback" style="text;html=1;align=center;verticalAlign=middle;resizable=0;points=[];autosize=1;strokeColor=none;fillColor=none;" vertex="1" parent="1">
          <mxGeometry x="1090" y="140" width="70" height="30" as="geometry" />
        </mxCell>
        <mxCell id="IyOS71oro97ILsGKfFHK-16" value="Backup before Purgeing" style="rounded=1;whiteSpace=wrap;html=1;" vertex="1" parent="1">
          <mxGeometry x="1250" y="525" width="120" height="60" as="geometry" />
        </mxCell>
        <mxCell id="IyOS71oro97ILsGKfFHK-18" value="Storage D" style="shape=cylinder3;whiteSpace=wrap;html=1;boundedLbl=1;backgroundOutline=1;size=15;" vertex="1" parent="1">
          <mxGeometry x="1181" y="375" width="60" height="80" as="geometry" />
        </mxCell>
        <mxCell id="IyOS71oro97ILsGKfFHK-21" value="To be purged" style="text;html=1;align=center;verticalAlign=middle;resizable=0;points=[];autosize=1;strokeColor=none;fillColor=none;" vertex="1" parent="1">
          <mxGeometry x="1165" y="325" width="90" height="30" as="geometry" />
        </mxCell>
        <mxCell id="SGVjL5Sx8XMtX507k5Lx-8" value="1R Storage Setup" style="text;html=1;align=center;verticalAlign=middle;resizable=0;points=[];autosize=1;strokeColor=none;fillColor=none;" vertex="1" parent="1">
          <mxGeometry x="700" y="68" width="120" height="30" as="geometry" />
        </mxCell>
      </root>
    </mxGraphModel>
  </diagram>
  <diagram id="OOcX6Fkq_VKw9SXoRXl5" name="2r-storage">
    <mxGraphModel dx="1569" dy="1171" grid="1" gridSize="10" guides="1" tooltips="1" connect="1" arrows="1" fold="1" page="1" pageScale="1" pageWidth="827" pageHeight="1169" math="0" shadow="0">
      <root>
        <mxCell id="0" />
        <mxCell id="1" parent="0" />
        <mxCell id="ZtCrEAHwbualAtO0F3hT-1" value="" style="edgeStyle=orthogonalEdgeStyle;rounded=0;orthogonalLoop=1;jettySize=auto;html=1;" edge="1" parent="1" source="ZtCrEAHwbualAtO0F3hT-3" target="ZtCrEAHwbualAtO0F3hT-4">
          <mxGeometry relative="1" as="geometry" />
        </mxCell>
        <mxCell id="ZtCrEAHwbualAtO0F3hT-2" value="Replication" style="edgeLabel;html=1;align=center;verticalAlign=middle;resizable=0;points=[];" vertex="1" connectable="0" parent="ZtCrEAHwbualAtO0F3hT-1">
          <mxGeometry x="-0.1249" y="2" relative="1" as="geometry">
            <mxPoint as="offset" />
          </mxGeometry>
        </mxCell>
        <mxCell id="ZtCrEAHwbualAtO0F3hT-3" value="Storage A" style="shape=cylinder3;whiteSpace=wrap;html=1;boundedLbl=1;backgroundOutline=1;size=15;" vertex="1" parent="1">
          <mxGeometry x="575" y="810" width="60" height="80" as="geometry" />
        </mxCell>
        <mxCell id="ZtCrEAHwbualAtO0F3hT-4" value="Storage B" style="shape=cylinder3;whiteSpace=wrap;html=1;boundedLbl=1;backgroundOutline=1;size=15;" vertex="1" parent="1">
          <mxGeometry x="740" y="810" width="60" height="80" as="geometry" />
        </mxCell>
        <mxCell id="ZtCrEAHwbualAtO0F3hT-5" value="Storage C" style="shape=cylinder3;whiteSpace=wrap;html=1;boundedLbl=1;backgroundOutline=1;size=15;" vertex="1" parent="1">
          <mxGeometry x="910" y="810" width="60" height="80" as="geometry" />
        </mxCell>
        <mxCell id="ZtCrEAHwbualAtO0F3hT-6" style="edgeStyle=orthogonalEdgeStyle;rounded=0;orthogonalLoop=1;jettySize=auto;html=1;entryX=0.5;entryY=1;entryDx=0;entryDy=0;entryPerimeter=0;" edge="1" parent="1" source="ZtCrEAHwbualAtO0F3hT-3" target="ZtCrEAHwbualAtO0F3hT-5">
          <mxGeometry relative="1" as="geometry">
            <Array as="points">
              <mxPoint x="605" y="910" />
              <mxPoint x="940" y="910" />
            </Array>
          </mxGeometry>
        </mxCell>
        <mxCell id="ZtCrEAHwbualAtO0F3hT-7" value="Cross Region Replication" style="edgeLabel;html=1;align=center;verticalAlign=middle;resizable=0;points=[];" vertex="1" connectable="0" parent="ZtCrEAHwbualAtO0F3hT-6">
          <mxGeometry x="-0.2186" y="1" relative="1" as="geometry">
            <mxPoint x="-1" as="offset" />
          </mxGeometry>
        </mxCell>
        <mxCell id="ZtCrEAHwbualAtO0F3hT-8" value="2R Storage Setup" style="text;html=1;align=center;verticalAlign=middle;resizable=0;points=[];autosize=1;strokeColor=none;fillColor=none;" vertex="1" parent="1">
          <mxGeometry x="700" y="738" width="120" height="30" as="geometry" />
        </mxCell>
      </root>
    </mxGraphModel>
  </diagram>
</mxfile>
